<svg width="26" height="26" viewBox="0 0 26 26" fill="none" xmlns="http://www.w3.org/2000/svg">
<path d="M12.6787 19.7305C13.0329 19.7305 13.33 19.6105 13.57 19.3705C13.8091 19.1313 13.9287 18.8346 13.9287 18.4805V14.7305H17.71C18.0641 14.7305 18.3558 14.6105 18.585 14.3705C18.8141 14.1313 18.9287 13.8346 18.9287 13.4805C18.9287 13.1263 18.8087 12.8292 18.5687 12.5892C18.3295 12.3501 18.0329 12.2305 17.6787 12.2305H13.9287V8.44922C13.9287 8.09505 13.8091 7.80339 13.57 7.57422C13.33 7.34505 13.0329 7.23047 12.6787 7.23047C12.3245 7.23047 12.0279 7.35005 11.7887 7.58922C11.5487 7.82922 11.4287 8.1263 11.4287 8.48047V12.2305H7.64746C7.29329 12.2305 7.00163 12.3501 6.77246 12.5892C6.54329 12.8292 6.42871 13.1263 6.42871 13.4805C6.42871 13.8346 6.54829 14.1313 6.78746 14.3705C7.02746 14.6105 7.32454 14.7305 7.67871 14.7305H11.4287V18.5117C11.4287 18.8659 11.5487 19.1576 11.7887 19.3867C12.0279 19.6159 12.3245 19.7305 12.6787 19.7305ZM12.6787 25.9805C10.9495 25.9805 9.32454 25.6521 7.80371 24.9955C6.28288 24.3396 4.95996 23.4492 3.83496 22.3242C2.70996 21.1992 1.81954 19.8763 1.16371 18.3555C0.507044 16.8346 0.178711 15.2096 0.178711 13.4805C0.178711 11.7513 0.507044 10.1263 1.16371 8.60547C1.81954 7.08464 2.70996 5.76172 3.83496 4.63672C4.95996 3.51172 6.28288 2.62089 7.80371 1.96422C9.32454 1.30839 10.9495 0.980469 12.6787 0.980469C14.4079 0.980469 16.0329 1.30839 17.5537 1.96422C19.0745 2.62089 20.3975 3.51172 21.5225 4.63672C22.6475 5.76172 23.5379 7.08464 24.1937 8.60547C24.8504 10.1263 25.1787 11.7513 25.1787 13.4805C25.1787 15.2096 24.8504 16.8346 24.1937 18.3555C23.5379 19.8763 22.6475 21.1992 21.5225 22.3242C20.3975 23.4492 19.0745 24.3396 17.5537 24.9955C16.0329 25.6521 14.4079 25.9805 12.6787 25.9805ZM12.6787 23.4805C15.4495 23.4805 17.8091 22.5067 19.7575 20.5592C21.705 18.6109 22.6787 16.2513 22.6787 13.4805C22.6787 10.7096 21.705 8.35005 19.7575 6.40172C17.8091 4.45422 15.4495 3.48047 12.6787 3.48047C9.90788 3.48047 7.54871 4.45422 5.60121 6.40172C3.65288 8.35005 2.67871 10.7096 2.67871 13.4805C2.67871 16.2513 3.65288 18.6109 5.60121 20.5592C7.54871 22.5067 9.90788 23.4805 12.6787 23.4805Z" fill="white"/>
</svg>
