<svg width="115" height="18" viewBox="0 0 115 18" fill="none" xmlns="http://www.w3.org/2000/svg">
<path d="M9.48438 5.20312C9.40104 4.46354 9.05729 3.89062 8.45312 3.48437C7.84896 3.07292 7.08854 2.86719 6.17188 2.86719C5.51563 2.86719 4.94792 2.97135 4.46875 3.17969C3.98958 3.38281 3.61719 3.66406 3.35156 4.02344C3.09115 4.3776 2.96094 4.78125 2.96094 5.23438C2.96094 5.61458 3.04948 5.94271 3.22656 6.21875C3.40885 6.49479 3.64583 6.72656 3.9375 6.91406C4.23438 7.09635 4.55208 7.25 4.89063 7.375C5.22917 7.49479 5.55469 7.59375 5.86719 7.67187L7.42969 8.07812C7.9401 8.20312 8.46354 8.3724 9 8.58594C9.53646 8.79948 10.0339 9.08073 10.4922 9.42969C10.9505 9.77865 11.3203 10.2109 11.6016 10.7266C11.888 11.2422 12.0313 11.8594 12.0313 12.5781C12.0313 13.4844 11.7969 14.2891 11.3281 14.9922C10.8646 15.6953 10.1901 16.25 9.30469 16.6562C8.42448 17.0625 7.35938 17.2656 6.10937 17.2656C4.91146 17.2656 3.875 17.0755 3 16.6953C2.125 16.3151 1.4401 15.776 0.945313 15.0781C0.450521 14.375 0.177083 13.5417 0.125 12.5781H2.54688C2.59375 13.1562 2.78125 13.638 3.10938 14.0234C3.44271 14.4036 3.86719 14.6875 4.38281 14.875C4.90365 15.0573 5.47396 15.1484 6.09375 15.1484C6.77604 15.1484 7.38281 15.0417 7.91406 14.8281C8.45052 14.6094 8.8724 14.3073 9.17969 13.9219C9.48698 13.5312 9.64063 13.0755 9.64063 12.5547C9.64063 12.0807 9.50521 11.6927 9.23438 11.3906C8.96875 11.0885 8.60677 10.8385 8.14844 10.6406C7.69531 10.4427 7.18229 10.2682 6.60938 10.1172L4.71875 9.60156C3.4375 9.2526 2.42188 8.73958 1.67188 8.0625C0.927083 7.38542 0.554688 6.48958 0.554688 5.375C0.554688 4.45312 0.804688 3.64844 1.30469 2.96094C1.80469 2.27344 2.48177 1.73958 3.33594 1.35938C4.1901 0.973958 5.15365 0.781249 6.22656 0.781249C7.3099 0.781249 8.26563 0.971354 9.09375 1.35156C9.92708 1.73177 10.5833 2.25521 11.0625 2.92187C11.5417 3.58333 11.7917 4.34375 11.8125 5.20312H9.48438ZM22.3301 12.0234V5H24.6738V17H22.377V14.9219H22.252C21.9759 15.5625 21.5332 16.0964 20.9238 16.5234C20.3197 16.9453 19.5671 17.1563 18.666 17.1563C17.8952 17.1563 17.2129 16.987 16.6191 16.6484C16.0306 16.3047 15.5671 15.7969 15.2285 15.125C14.8952 14.4531 14.7285 13.6224 14.7285 12.6328V5H17.0645V12.3516C17.0645 13.1693 17.291 13.8203 17.7441 14.3047C18.1973 14.7891 18.7858 15.0312 19.5098 15.0312C19.9473 15.0312 20.3822 14.9219 20.8145 14.7031C21.252 14.4844 21.6139 14.1536 21.9004 13.7109C22.1921 13.2682 22.3353 12.7057 22.3301 12.0234ZM27.8125 17V5H30.0703V6.90625H30.1953C30.4141 6.26042 30.7995 5.7526 31.3516 5.38281C31.9089 5.00781 32.5391 4.82031 33.2422 4.82031C33.388 4.82031 33.5599 4.82552 33.7578 4.83594C33.9609 4.84635 34.1198 4.85937 34.2344 4.875V7.10937C34.1406 7.08333 33.974 7.05469 33.7344 7.02344C33.4948 6.98698 33.2552 6.96875 33.0156 6.96875C32.4635 6.96875 31.9714 7.08594 31.5391 7.32031C31.112 7.54948 30.7734 7.86979 30.5234 8.28125C30.2734 8.6875 30.1484 9.15104 30.1484 9.67187V17H27.8125ZM42.6758 5V6.875H35.8945V5H42.6758ZM37.7539 17V3.60937C37.7539 2.85937 37.918 2.23698 38.2461 1.74219C38.5742 1.24219 39.0091 0.869791 39.5508 0.625C40.0924 0.374999 40.681 0.249999 41.3164 0.249999C41.7852 0.249999 42.1862 0.289062 42.5195 0.367187C42.8529 0.440104 43.1003 0.507812 43.2617 0.570312L42.7148 2.46094C42.6055 2.42969 42.4648 2.39323 42.293 2.35156C42.1211 2.30469 41.9128 2.28125 41.668 2.28125C41.1003 2.28125 40.694 2.42187 40.4492 2.70312C40.2096 2.98437 40.0898 3.39062 40.0898 3.92187V17H37.7539ZM54 5.20312C53.9167 4.46354 53.5729 3.89062 52.9688 3.48437C52.3646 3.07292 51.6042 2.86719 50.6875 2.86719C50.0313 2.86719 49.4635 2.97135 48.9844 3.17969C48.5052 3.38281 48.1328 3.66406 47.8672 4.02344C47.6068 4.3776 47.4766 4.78125 47.4766 5.23438C47.4766 5.61458 47.5651 5.94271 47.7422 6.21875C47.9245 6.49479 48.1615 6.72656 48.4531 6.91406C48.75 7.09635 49.0677 7.25 49.4063 7.375C49.7448 7.49479 50.0703 7.59375 50.3828 7.67187L51.9453 8.07812C52.4557 8.20312 52.9792 8.3724 53.5156 8.58594C54.0521 8.79948 54.5495 9.08073 55.0078 9.42969C55.4661 9.77865 55.8359 10.2109 56.1172 10.7266C56.4036 11.2422 56.5469 11.8594 56.5469 12.5781C56.5469 13.4844 56.3125 14.2891 55.8437 14.9922C55.3802 15.6953 54.7057 16.25 53.8203 16.6562C52.9401 17.0625 51.875 17.2656 50.625 17.2656C49.4271 17.2656 48.3906 17.0755 47.5156 16.6953C46.6406 16.3151 45.9557 15.776 45.4609 15.0781C44.9661 14.375 44.6927 13.5417 44.6406 12.5781H47.0625C47.1094 13.1562 47.2969 13.638 47.625 14.0234C47.9583 14.4036 48.3828 14.6875 48.8984 14.875C49.4193 15.0573 49.9896 15.1484 50.6094 15.1484C51.2917 15.1484 51.8984 15.0417 52.4297 14.8281C52.9661 14.6094 53.388 14.3073 53.6953 13.9219C54.0026 13.5312 54.1563 13.0755 54.1563 12.5547C54.1563 12.0807 54.0208 11.6927 53.75 11.3906C53.4844 11.0885 53.1224 10.8385 52.6641 10.6406C52.2109 10.4427 51.6979 10.2682 51.125 10.1172L49.2344 9.60156C47.9531 9.2526 46.9375 8.73958 46.1875 8.0625C45.4427 7.38542 45.0703 6.48958 45.0703 5.375C45.0703 4.45312 45.3203 3.64844 45.8203 2.96094C46.3203 2.27344 46.9974 1.73958 47.8516 1.35938C48.7057 0.973958 49.6693 0.781249 50.7422 0.781249C51.8255 0.781249 52.7813 0.971354 53.6094 1.35156C54.4427 1.73177 55.099 2.25521 55.5781 2.92187C56.0573 3.58333 56.3073 4.34375 56.3281 5.20312H54ZM61.5801 9.875V17H59.2441V1H61.5488V6.95312H61.6973C61.9785 6.30729 62.4082 5.79427 62.9863 5.41406C63.5645 5.03385 64.3197 4.84375 65.252 4.84375C66.0749 4.84375 66.7936 5.01302 67.4082 5.35156C68.028 5.6901 68.5072 6.19531 68.8457 6.86719C69.1895 7.53385 69.3613 8.36719 69.3613 9.36719V17H67.0254V9.64844C67.0254 8.76823 66.7988 8.08594 66.3457 7.60156C65.8926 7.11198 65.2624 6.86719 64.4551 6.86719C63.903 6.86719 63.4082 6.98437 62.9707 7.21875C62.5384 7.45312 62.1973 7.79687 61.9473 8.25C61.7025 8.69792 61.5801 9.23958 61.5801 9.875ZM75.9707 17.2656C75.2103 17.2656 74.5228 17.125 73.9082 16.8437C73.2936 16.5573 72.8066 16.1432 72.4473 15.6016C72.0931 15.0599 71.916 14.3958 71.916 13.6094C71.916 12.9323 72.0462 12.375 72.3066 11.9375C72.5671 11.5 72.9186 11.1536 73.3613 10.8984C73.804 10.6432 74.2988 10.4505 74.8457 10.3203C75.3926 10.1901 75.9499 10.0911 76.5176 10.0234C77.2363 9.9401 77.8197 9.8724 78.2676 9.82031C78.7155 9.76302 79.041 9.67187 79.2441 9.54688C79.4473 9.42187 79.5488 9.21875 79.5488 8.9375V8.88281C79.5488 8.20052 79.3561 7.67187 78.9707 7.29687C78.5905 6.92187 78.0228 6.73437 77.2676 6.73437C76.4811 6.73437 75.8613 6.90885 75.4082 7.25781C74.9603 7.60156 74.6504 7.98437 74.4785 8.40625L72.2832 7.90625C72.5436 7.17708 72.9238 6.58854 73.4238 6.14062C73.929 5.6875 74.5098 5.35937 75.166 5.15625C75.8223 4.94792 76.5124 4.84375 77.2363 4.84375C77.7155 4.84375 78.2233 4.90104 78.7598 5.01563C79.3014 5.125 79.8066 5.32812 80.2754 5.625C80.7493 5.92187 81.1374 6.34635 81.4395 6.89844C81.7415 7.44531 81.8926 8.15625 81.8926 9.03125V17H79.6113V15.3594H79.5176C79.3665 15.6615 79.14 15.9583 78.8379 16.25C78.5358 16.5417 78.1478 16.7839 77.6738 16.9766C77.1999 17.1693 76.6322 17.2656 75.9707 17.2656ZM76.4785 15.3906C77.1243 15.3906 77.6764 15.263 78.1348 15.0078C78.5983 14.7526 78.9499 14.4193 79.1895 14.0078C79.4342 13.5911 79.5566 13.1458 79.5566 12.6719V11.125C79.4733 11.2083 79.3118 11.2865 79.0723 11.3594C78.8379 11.4271 78.5697 11.487 78.2676 11.5391C77.9655 11.5859 77.6712 11.6302 77.3848 11.6719C77.0983 11.7083 76.8587 11.7396 76.666 11.7656C76.2129 11.8229 75.7988 11.9193 75.4238 12.0547C75.054 12.1901 74.7572 12.3854 74.5332 12.6406C74.3145 12.8906 74.2051 13.224 74.2051 13.6406C74.2051 14.2187 74.4186 14.6562 74.8457 14.9531C75.2728 15.2448 75.8171 15.3906 76.4785 15.3906ZM85.0039 17V5H87.2617V6.90625H87.3867C87.6055 6.26042 87.9909 5.7526 88.543 5.38281C89.1003 5.00781 89.7305 4.82031 90.4336 4.82031C90.5794 4.82031 90.7513 4.82552 90.9492 4.83594C91.1523 4.84635 91.3112 4.85937 91.4258 4.875V7.10937C91.332 7.08333 91.1654 7.05469 90.9258 7.02344C90.6862 6.98698 90.4466 6.96875 90.207 6.96875C89.6549 6.96875 89.1628 7.08594 88.7305 7.32031C88.3034 7.54948 87.9648 7.86979 87.7148 8.28125C87.4648 8.6875 87.3398 9.15104 87.3398 9.67187V17H85.0039ZM95.5957 12.9297L95.5801 10.0781H95.9863L100.768 5H103.564L98.1113 10.7812H97.7441L95.5957 12.9297ZM93.4473 17V1H95.7832V17H93.4473ZM101.025 17L96.7285 11.2969L98.3379 9.66406L103.893 17H101.025ZM114.686 7.92969L112.568 8.30469C112.48 8.03385 112.339 7.77604 112.146 7.53125C111.959 7.28646 111.704 7.08594 111.381 6.92969C111.058 6.77344 110.654 6.69531 110.17 6.69531C109.508 6.69531 108.956 6.84375 108.514 7.14062C108.071 7.43229 107.85 7.8099 107.85 8.27344C107.85 8.67448 107.998 8.9974 108.295 9.24219C108.592 9.48698 109.071 9.6875 109.732 9.84375L111.639 10.2812C112.743 10.5365 113.566 10.9297 114.107 11.4609C114.649 11.9922 114.92 12.6823 114.92 13.5313C114.92 14.25 114.712 14.8906 114.295 15.4531C113.883 16.0104 113.308 16.4479 112.568 16.7656C111.834 17.0833 110.982 17.2422 110.014 17.2422C108.67 17.2422 107.574 16.9557 106.725 16.3828C105.876 15.8047 105.355 14.9844 105.162 13.9219L107.42 13.5781C107.561 14.1667 107.85 14.612 108.287 14.9141C108.725 15.2109 109.295 15.3594 109.998 15.3594C110.764 15.3594 111.376 15.2005 111.834 14.8828C112.292 14.5599 112.521 14.1667 112.521 13.7031C112.521 13.3281 112.381 13.013 112.1 12.7578C111.824 12.5026 111.399 12.3099 110.826 12.1797L108.795 11.7344C107.675 11.4792 106.847 11.0729 106.311 10.5156C105.779 9.95833 105.514 9.2526 105.514 8.39844C105.514 7.6901 105.712 7.07031 106.107 6.53906C106.503 6.00781 107.05 5.59375 107.748 5.29687C108.446 4.99479 109.245 4.84375 110.146 4.84375C111.443 4.84375 112.464 5.125 113.209 5.6875C113.954 6.24479 114.446 6.99219 114.686 7.92969Z" fill="white"/>
</svg>
