<svg width="31" height="21" viewBox="0 0 31 21" fill="none" xmlns="http://www.w3.org/2000/svg">
<path d="M24.6533 8.51191C24.2334 6.38406 23.0878 4.46799 21.4122 3.09097C19.7365 1.71396 17.6347 0.961424 15.4658 0.961914C11.8533 0.961914 8.71582 3.01191 7.15332 6.01191C5.31611 6.21045 3.61708 7.08092 2.38268 8.45607C1.14828 9.83121 0.465606 11.614 0.46582 13.4619C0.46582 17.5994 3.82832 20.9619 7.96582 20.9619H24.2158C27.6658 20.9619 30.4658 18.1619 30.4658 14.7119C30.4658 11.4119 27.9033 8.73691 24.6533 8.51191ZM17.9658 12.2119V17.2119H12.9658V12.2119H9.21582L15.4658 5.96191L21.7158 12.2119H17.9658Z" fill="#5E5D72"/>
</svg>
